<svg xmlns="http://www.w3.org/2000/svg" xmlns:xlink="http://www.w3.org/1999/xlink" viewBox="0 0 29.24 29.24"><defs><style>.cls-1{fill:url(#linear-gradient);}.cls-2{fill:#fff;}</style><linearGradient id="linear-gradient" x1="290.41" y1="24.52" x2="315.16" y2="49.27" gradientTransform="translate(51.52 -288.16) rotate(90)" gradientUnits="userSpaceOnUse"><stop offset="0" stop-color="#4676ed"/><stop offset="0.19" stop-color="#436de4"/><stop offset="0.49" stop-color="#3c55cd"/><stop offset="0.87" stop-color="#302ea8"/><stop offset="1" stop-color="#2b1e99"/></linearGradient></defs><g id="Camada_2" data-name="Camada 2"><g id="ELEMENTS"><path class="cls-1" d="M0,21.59V7.65A7.67,7.67,0,0,1,7.65,0H21.59a7.67,7.67,0,0,1,7.65,7.65V21.59a7.67,7.67,0,0,1-7.65,7.65H16.91l-2.46-.6-2.11.6H7.65A7.67,7.67,0,0,1,0,21.59Z"/><path class="cls-2" d="M20.31,19.33,21,15.1H16.91V12.36a2.11,2.11,0,0,1,2.38-2.28h1.84V6.48a22.08,22.08,0,0,0-3.27-.29c-3.34,0-5.52,2-5.52,5.69V15.1H8.62v4.23h3.72v9.91h4.57V19.33Z"/></g></g></svg>