<svg xmlns="http://www.w3.org/2000/svg" xmlns:xlink="http://www.w3.org/1999/xlink" viewBox="0 0 29.24 29.24"><defs><style>.cls-1{fill:url(#Degradado_sin_nombre_7);}.cls-2{fill:#fff;}</style><linearGradient id="Degradado_sin_nombre_7" x1="339.36" y1="35.64" x2="364.11" y2="60.39" gradientTransform="translate(-337.11 -33.39)" gradientUnits="userSpaceOnUse"><stop offset="0" stop-color="red"/><stop offset="1" stop-color="#850000"/></linearGradient></defs><g id="Camada_2" data-name="Camada 2"><g id="ELEMENTS"><rect class="cls-1" width="29.24" height="29.24" rx="7.65" transform="translate(29.24 0) rotate(90)"/><path class="cls-2" d="M22.45,12.5A3.52,3.52,0,0,0,18.94,9H10A3.52,3.52,0,0,0,6.45,12.5v4.17A3.51,3.51,0,0,0,10,20.18h9a3.51,3.51,0,0,0,3.51-3.51Zm-5.28,2.4-4,2c-.15.08-.69,0-.69-.21V12.59c0-.18.54-.29.7-.2L17,14.48C17.16,14.58,17.33,14.81,17.17,14.9Z"/></g></g></svg>